<?xml version="1.0" encoding="UTF-8"?>
<svg id="Capa_2" data-name="Capa 2" xmlns="http://www.w3.org/2000/svg" xmlns:xlink="http://www.w3.org/1999/xlink" viewBox="0 0 115.73 115.9">
  <defs>
    <style>
      .cls-1 {
        fill: url(#Degradado_sin_nombre_28);
      }

      .cls-2 {
        fill: #cecece;
      }

      .cls-3 {
        fill: #2ba0bf;
      }
    </style>
    <linearGradient id="Degradado_sin_nombre_28" data-name="Degradado sin nombre 28" x1="57.87" y1=".39" x2="57.87" y2="116.12" gradientUnits="userSpaceOnUse">
      <stop offset="0" stop-color="#62e17d"/>
      <stop offset="1" stop-color="#39bf99"/>
    </linearGradient>
  </defs>
  <g id="Capa_5" data-name="Capa 5">
    <path class="cls-3" d="M111.37,79.04v-.22c0-.09.01-.18.02-.26-.04-.36-.06-.73-.04-1.1-.05-.28-.08-.57-.07-.86v-.09c0-.13.02-.26.03-.38-.43-.21-1.03-.33-1.93-.36-2.5-.08-2.32-.24-3.54,2.26-1.92,3.95-2.96,8.1-5.56,11.71-6.12,8.49-15.9,15.86-25.98,18.88-5.3,1.59-11.1,1.82-16.58,2.4-4.92.51-9.83.64-14.73-.12-10.39-1.61-17.84-8.9-23.88-17.03-3.15-4.23-9.1-15.49-15.33-17.3.23.66.32,1.37.29,2.08.17.46.24.94.22,1.45v.03c0,.22-.02.43-.04.64v13.21c0,9.8,7.94,17.74,17.74,17.74h13.56c.07.03.14.05.21.08.23-.03.46-.05.7-.05.23,0,.45.02.66.04.22-.03.44-.04.67-.04.47,0,.9.06,1.29.15,1.02.03,2.07.2,3.14.46,10.99,2.7,23.19,1.78,33.96-1.64,1.93-.61,3.51-.08,4.58.99h13.02c9.79,0,17.73-7.94,17.73-17.74v-13.53s.02-.06.04-.09c-.14-.42-.2-.86-.18-1.32Z"/>
    <path class="cls-2" d="M81.75,34.02c-.72-.73-1.68-1.09-2.63-1.09s-1.91.36-2.63,1.09l-14.96,14.96c-.85-.35-1.76-.58-2.72-.67v-12.7c0-2.06-1.66-3.72-3.72-3.72-1.02,0-1.96.42-2.63,1.09-.67.67-1.09,1.6-1.09,2.63v14.39c0,.23.02.46.07.68-2.07,1.79-3.37,4.44-3.37,7.39,0,5.42,4.39,9.81,9.81,9.81s9.8-4.39,9.8-9.81c0-1.39-.29-2.71-.81-3.91l14.88-14.88c1.46-1.45,1.46-3.81,0-5.26ZM57.88,62.43c-2.41,0-4.36-1.95-4.36-4.36s1.95-4.35,4.36-4.35,4.36,1.95,4.36,4.35-1.95,4.36-4.36,4.36Z"/>
    <path class="cls-1" d="M111.77,23.1c.24-7.06-5.48-15.11-12.48-17.11-11.71-2.93-12.76.51-29.37-4.78-.08-.01-.17-.02-.25-.04-.45-.09-.87-.22-1.32-.3-.59-.09-1.19-.27-1.76-.53-5.81-.85-17.15-.03-20.66.85-12,3-15.28,4.17-27.28,4.17-7,1-14.54,9.22-14.62,16.22-.29,29.4-3.26,17.4-4.03,36.44,0,31.96,25.91,57.87,57.87,57.87s57.86-25.91,57.86-57.87c-.93-26.16-4.7-13.25-3.96-34.93ZM57.87,108.4c-28.5,0-51.47-23.68-50.32-52.44C8.59,29.73,30.11,8.47,56.35,7.69c8.95-.26,17.4,1.81,24.77,5.65,1.54.8,3.39.79,4.86-.14,1.57-1.01,3.44-1.59,5.45-1.59.52,0,1.05.04,1.56.12,2.03.32,3.88,1.24,5.33,2.59,1.45,1.35,2.51,3.11,2.99,5.11.18.75.26,1.54.26,2.34,0,1.68-.4,3.27-1.13,4.67-.82,1.58-.76,3.46.19,4.97,4.82,7.72,7.61,16.85,7.61,26.62,0,27.82-22.56,50.37-50.37,50.37Z"/>
  </g>
</svg>